<?xml version="1.0" encoding="UTF-8" standalone="no"?>
<!-- Created with Inkscape (http://www.inkscape.org/) -->

<svg
   xmlns:dc="http://purl.org/dc/elements/1.1/"
   xmlns:cc="http://creativecommons.org/ns#"
   xmlns:rdf="http://www.w3.org/1999/02/22-rdf-syntax-ns#"
   xmlns:svg="http://www.w3.org/2000/svg"
   xmlns="http://www.w3.org/2000/svg"
   xmlns:sodipodi="http://sodipodi.sourceforge.net/DTD/sodipodi-0.dtd"
   xmlns:inkscape="http://www.inkscape.org/namespaces/inkscape"
   width="112.8086mm"
   height="46.56241mm"
   viewBox="0 0 112.8086 46.56241"
   version="1.1"
   id="svg8"
   inkscape:version="0.92.1 r15371"
   sodipodi:docname="3D glasses icon.svg">
  <title
     id="title4655">3D glasses icon</title>
  <defs
     id="defs2" />
  <sodipodi:namedview
     id="base"
     pagecolor="#ffffff"
     bordercolor="#666666"
     borderopacity="1.0"
     inkscape:pageopacity="0.0"
     inkscape:pageshadow="2"
     inkscape:zoom="0.35"
     inkscape:cx="400"
     inkscape:cy="560"
     inkscape:document-units="mm"
     inkscape:current-layer="layer1"
     showgrid="false" />
  <metadata
     id="metadata5">
    <rdf:RDF>
      <cc:Work
         rdf:about="">
        <dc:format>image/svg+xml</dc:format>
        <dc:type
           rdf:resource="http://purl.org/dc/dcmitype/StillImage" />
        <dc:title>3D glasses icon</dc:title>
        <dc:date>2018</dc:date>
        <dc:creator>
          <cc:Agent>
            <dc:title>krzysiu.net (Krzysztof Blachnicki)</dc:title>
          </cc:Agent>
        </dc:creator>
        <dc:publisher>
          <cc:Agent>
            <dc:title>OpenClipart.org</dc:title>
          </cc:Agent>
        </dc:publisher>
        <dc:rights>
          <cc:Agent>
            <dc:title>krzysiu.net (Krzysztof Blachnicki)</dc:title>
          </cc:Agent>
        </dc:rights>
        <dc:language>neutral</dc:language>
        <dc:subject>
          <rdf:Bag>
            <rdf:li>vr</rdf:li>
            <rdf:li>virtual reality</rdf:li>
            <rdf:li>3d</rdf:li>
            <rdf:li>glasses</rdf:li>
            <rdf:li>icon</rdf:li>
            <rdf:li>monochrome</rdf:li>
            <rdf:li>Oculus Rift</rdf:li>
            <rdf:li>Vive</rdf:li>
          </rdf:Bag>
        </dc:subject>
      </cc:Work>
    </rdf:RDF>
  </metadata>
  <g
     inkscape:label="Layer 1"
     inkscape:groupmode="layer"
     id="layer1"
     transform="translate(-24.48222,-59.07816)">
    <flowRoot
       transform="matrix(1.111108,0,0,1.111108,288.2348,-74.21186)"
       style="color:#000000;font-style:normal;font-variant:normal;font-weight:bold;font-stretch:normal;font-size:37.3333321px;line-height:36.2299995px;font-family:Now;-inkscape-font-specification:'Now Bold';font-variant-ligatures:normal;font-variant-caps:normal;font-variant-numeric:normal;font-feature-settings:normal;text-align:center;writing-mode:lr-tb;text-anchor:middle;clip-rule:nonzero;display:inline;overflow:visible;visibility:visible;opacity:1;isolation:auto;mix-blend-mode:normal;color-interpolation:sRGB;color-interpolation-filters:linearRGB;solid-color:#000000;solid-opacity:1;fill:#000000;fill-opacity:1;fill-rule:nonzero;stroke:none;stroke-width:2.7000077;stroke-linecap:butt;stroke-linejoin:round;stroke-miterlimit:4;stroke-dasharray:none;stroke-dashoffset:0;stroke-opacity:1;paint-order:normal;color-rendering:auto;image-rendering:auto;shape-rendering:auto;text-rendering:auto;enable-background:accumulate"
       id="flowRoot4614"
       xml:space="preserve"><flowRegion
         style="fill:#000000;stroke:none;stroke-width:2.7000077"
         id="flowRegion4610"><rect
           style="fill:#000000;stroke:none;stroke-width:2.7000077"
           y="119.4382"
           x="-402.0407"
           height="238.396"
           width="432.3453"
           id="rect4608" /></flowRegion><flowPara
         style="font-style:normal;font-variant:normal;font-weight:bold;font-stretch:normal;font-family:Roboto;-inkscape-font-specification:'Roboto Bold';letter-spacing:-1.4525657px;fill:#000000;stroke:none;stroke-width:2.7000077"
         id="flowPara4612">3D</flowPara></flowRoot>    <path
       style="color:#000000;font-style:normal;font-variant:normal;font-weight:normal;font-stretch:normal;font-size:medium;line-height:normal;font-family:sans-serif;font-variant-ligatures:normal;font-variant-position:normal;font-variant-caps:normal;font-variant-numeric:normal;font-variant-alternates:normal;font-feature-settings:normal;text-indent:0;text-align:start;text-decoration:none;text-decoration-line:none;text-decoration-style:solid;text-decoration-color:#000000;letter-spacing:normal;word-spacing:normal;text-transform:none;writing-mode:lr-tb;direction:ltr;text-orientation:mixed;dominant-baseline:auto;baseline-shift:baseline;text-anchor:start;white-space:normal;shape-padding:0;clip-rule:nonzero;display:inline;overflow:visible;visibility:visible;opacity:1;isolation:auto;mix-blend-mode:normal;color-interpolation:sRGB;color-interpolation-filters:linearRGB;solid-color:#000000;solid-opacity:1;vector-effect:none;fill:#000000;fill-opacity:1;fill-rule:evenodd;stroke:none;stroke-width:37.7952766;stroke-linecap:butt;stroke-linejoin:miter;stroke-miterlimit:4;stroke-dasharray:none;stroke-dashoffset:0;stroke-opacity:1;color-rendering:auto;image-rendering:auto;shape-rendering:auto;text-rendering:auto;enable-background:accumulate"
       d="m 92.53125,248.8574 v 67.5664 0.1035 c 0.23849,22.0854 6.20897,42.6029 19.53325,57.9571 13.2562,15.2758 33.719,23.9072 56.4902,23.5937 l 112.5703,1.1934 6.498,-62.9004 c -7.8321,4.8882 -17.3252,7.2656 -28.0078,7.2656 -3.656,0 -7.2071,-0.342 -10.6328,-1.0097 l -1.9101,18.4882 -78.5664,-0.834 -0.2735,0.01 c -13.9362,0.2479 -21.6894,-3.7326 -27.623,-10.5703 -5.9337,-6.8377 -10.1156,-18.0771 -10.2832,-33.5938 v -29.4687 h 110.9864 v -15.8262 c 0,-3.1314 2.5385,-5.6699 5.6699,-5.6699 h 12.3203 c 4.3263,0 6.4044,-1.0001 7.625,-2.3184 0.014,-0.012 0.029,-0.025 0.043,-0.037 1.4273,-1.5113 2.3554,-3.7263 2.3554,-7.7441 0,-2.825 -0.6795,-4.544 -2.2148,-6.1992 h -14.4199 c -1.3624,1.3641 -1.8868,2.6613 -1.8868,4.9746 0,3.1306 -2.5373,5.6688 -5.6679,5.6699 h -21.586 c -2.4498,0 -4.6232,-1.5713 -5.3886,-3.8984 l -0.1465,-0.4571 c -0.1682,-0.5107 -0.2629,-1.0427 -0.2813,-1.58 -0.056,-1.5964 0.016,-3.1658 0.1856,-4.709 z m 187.22655,0 c 0.5953,1.9873 0.9102,4.0766 0.9102,6.2011 0,5.9788 -1.6771,11.5102 -5.4473,15.5098 -3.8829,4.1706 -9.6432,5.9277 -15.916,5.9277 h -6.6504 v 5.4258 h 6.6582 c 6.6482,0 12.6476,1.7516 16.918,5.8594 4.3828,4.1642 6.2011,10.2956 6.2011,17.1113 0,5.8952 -2.3027,11.5063 -6.5097,15.5098 -4.2669,4.0603 -10.0882,6.084 -16.3067,6.084 -3.0746,0 -6.0636,-0.5534 -8.7968,-1.6406 l -0.668,6.4765 c 2.9639,0.6472 6.107,0.9727 9.4648,0.9727 10.5764,0 18.5787,-2.582 24.795,-7.5 1.9942,-1.5816 3.6319,-3.2809 4.9414,-5.1524 l 2.4296,-23.5273 c -0.5604,-1.3855 -1.2576,-2.667 -2.1074,-3.8594 -0.01,-0.01 -0.01,-0.016 -0.016,-0.023 -2.4723,-3.5092 -5.9032,-6.1229 -10.8437,-7.9864 -4.667,-1.7617 -4.9484,-8.2573 -0.4512,-10.416 4.333,-2.0798 7.4749,-4.7457 9.7969,-8.1269 0,-0.01 0.01,-0.01 0.01,-0.016 2.3621,-3.4212 3.4394,-6.852 3.4394,-10.8594 0,-2.1736 -0.1576,-4.1524 -0.4726,-5.9707 z m -25.6758,44.4023 -1.9824,19.1817 c 0.021,0.021 0.037,0.041 0.059,0.062 1.8759,1.7637 3.9784,2.6425 7.457,2.6425 3.9886,0 6.4346,-0.9894 8.4961,-2.9511 2.1213,-2.0186 2.9825,-4.0092 2.9825,-7.3008 0,-4.9157 -1.1434,-7.4529 -2.6719,-8.9024 -0.013,-0.013 -0.026,-0.026 -0.039,-0.039 -1.6483,-1.5914 -4.3014,-2.6934 -9.0723,-2.6934 z"
       transform="scale(0.2645833)"
       id="path4487"
       inkscape:connector-curvature="0"
       sodipodi:nodetypes="cccccccsccccccccccsccscccccccccccscsccscscsccscccccccccscccccscsccsc" />
    <path
       style="color:#000000;font-style:normal;font-variant:normal;font-weight:normal;font-stretch:normal;font-size:medium;line-height:normal;font-family:sans-serif;font-variant-ligatures:normal;font-variant-position:normal;font-variant-caps:normal;font-variant-numeric:normal;font-variant-alternates:normal;font-feature-settings:normal;text-indent:0;text-align:start;text-decoration:none;text-decoration-line:none;text-decoration-style:solid;text-decoration-color:#000000;letter-spacing:normal;word-spacing:normal;text-transform:none;writing-mode:lr-tb;direction:ltr;text-orientation:mixed;dominant-baseline:auto;baseline-shift:baseline;text-anchor:start;white-space:normal;shape-padding:0;clip-rule:nonzero;display:inline;overflow:visible;visibility:visible;opacity:1;isolation:auto;mix-blend-mode:normal;color-interpolation:sRGB;color-interpolation-filters:linearRGB;solid-color:#000000;solid-opacity:1;vector-effect:none;fill:#000000;fill-opacity:1;fill-rule:evenodd;stroke:none;stroke-width:37.7952766;stroke-linecap:butt;stroke-linejoin:miter;stroke-miterlimit:4;stroke-dasharray:none;stroke-dashoffset:0;stroke-opacity:1;color-rendering:auto;image-rendering:auto;shape-rendering:auto;text-rendering:auto;enable-background:accumulate"
       d="M 314.8301,248.8574 V 249.5 l 2.0898,20.1973 6.2989,60.9902 h 24.83 c 4.7363,0 9.0473,-0.5438 13.002,-1.6328 l -0.7051,-6.8145 c -3.7569,1.7321 -7.9255,2.6368 -12.2969,2.6368 h -16.5351 a 5.669858,5.669858 0 0 1 -5.6699,-5.67 v -70.3496 z m 22.3515,0 v 64.6817 h 10.8672 c 4.6567,0 8.0636,-1.1327 11.0176,-3.6817 l -2.3965,-23.2031 h 10.211 v -15.3691 c 0,-7.5268 -1.8772,-13.028 -5.4493,-17.3711 -2.0116,-2.4463 -4.1493,-4.0914 -6.7168,-5.0567 z m 34.6172,0 c 4.3154,6.2344 6.42,13.9109 6.42,22.4258 v 15.3711 h 11.0878 v -15.2148 c 0,-8.9435 -1.9735,-16.3049 -5.9824,-22.5821 z m 24.2559,0 c 3.0319,6.801 4.5762,14.3978 4.5762,22.5821 v 15.2148 h 80.4687 v 29.5195 c -0.1776,15.4857 -4.3495,26.7141 -10.2754,33.543 -5.9338,6.8377 -13.6946,10.8182 -27.6308,10.5703 l -0.2637,-0.01 -78.5664,0.834 -2.1426,-20.7363 c -4.4876,1.0879 -9.2223,1.6465 -14.1719,1.6465 h -23.6582 l 5.9121,57.2461 112.5743,-1.1934 c 22.7688,0.312 43.2369,-8.3211 56.4921,-23.5957 13.3244,-15.3542 19.2869,-35.8697 19.5254,-57.9551 v -0.1035 -67.5664 z"
       transform="scale(0.2645833)"
       id="path4489"
       inkscape:connector-curvature="0" />
  </g>
</svg>
